<?xml version="1.0" encoding="UTF-8"?>
<svg version="1.1" viewBox="0 0 1280 1280" width="1280" height="1280" xmlns="http://www.w3.org/2000/svg">
<path transform="translate(0)" d="m0 0h1280v1280h-1280z" fill="#E4E6E7"/>
<path transform="translate(615,814)" d="m0 0h53l43 3 38 5 38 7 40 10 37 12 33 13 26 12 29 15 23 14 19 13 16 12 16 13 26 24 14 15 11 13 12 16 10 15 11 19 8 16 7 15 10 30 5 22 3 19 1 14h-1e3l1-15 4-24 6-23 6-18 9-21 12-23 12-19 10-14 13-16 11-12 7-8 15-15 11-9 10-9 13-10 18-13 16-10 20-12 29-15 26-12 23-9 23-8 26-8 36-9 31-6 36-5 33-3z" fill="#ADB3B6"/>
<path transform="translate(629,259)" d="m0 0h29l25 3 23 5 24 8 29 14 16 10 11 8 10 8 10 9 8 7 7 7 9 11 12 15 11 17 10 18 9 19 9 25 6 23 4 21 2 19v47l-3 24-5 24-6 21-10 25-12 24-12 19-13 17-12 14-17 17-11 9-19 14-21 12-19 9-19 7-23 6-19 3-9 1h-39l-23-3-25-6-20-7-22-10-14-8-12-8-12-9-13-11-13-12-11-12-11-14-11-16-9-15-8-16-8-18-9-27-6-26-3-22-1-12v-35l3-28 6-29 7-23 10-24 12-23 10-16 13-17 12-14 19-19 14-11 17-12 21-12 20-9 24-8 22-5z" fill="#ADB3B6"/>
</svg>
